<svg xmlns="http://www.w3.org/2000/svg" width="286" height="189.793" viewBox="0 0 286 189.793"><defs><style>.a{fill:rgba(184,194,203,0.15);}.b{fill:#fff;}.c,.f{fill:#030303;}.d{opacity:0.5;}.e{fill:#1087ff;}.f{stroke:#030303;stroke-width:0.5px;}.g{fill:#0a9eff;}.h{fill:#6a79a8;}.i{fill:#dbe1e5;}</style></defs><g transform="translate(-33 -200.983)"><g transform="translate(-22.402 62.597)"><g transform="translate(55.402 143.411)"><g transform="translate(10.287)"><path class="a" d="M171.542,324.465c-5.839-.937-76-9.382-70.833-71.662s11.647-81.01,38.923-87.863,93.581-39.277,145.61-8.446,108.173,58.483,85.893,107.711-25.927,65.649-84.056,63.137S199.308,328.923,171.542,324.465Z" transform="translate(-100.437 -143.411)"/></g><g transform="translate(182.398 47.659)"><g transform="translate(0 14.571)"><rect class="b" width="91.188" height="12.75" rx="6.375"/></g><g transform="translate(55.087)"><path class="b" d="M1132.511,362.231h-32.3a5.1,5.1,0,0,1-5.085-5.085h0a5.1,5.1,0,0,1,5.085-5.085h32.3a5.1,5.1,0,0,1,5.085,5.085h0A5.1,5.1,0,0,1,1132.511,362.231Z" transform="translate(-1095.125 -352.062)"/></g><g transform="translate(61.131 31.267)"><path class="b" d="M1158.971,499.119h-32.3a5.1,5.1,0,0,1-5.085-5.085h0a5.1,5.1,0,0,1,5.085-5.085h32.3a5.1,5.1,0,0,1,5.085,5.085h0A5.1,5.1,0,0,1,1158.971,499.119Z" transform="translate(-1121.585 -488.95)"/></g><g transform="translate(69.108 27.321)"><path class="b" d="M1168.953,476.024c-1.575,0-2.852-.974-2.852-2.175s1.276-2.176,2.852-2.176h-12.442c1.575,0,2.852.974,2.852,2.176s-1.277,2.175-2.852,2.175Z" transform="translate(-1156.511 -471.673)"/></g><g transform="translate(72.593 10.169)"><path class="b" d="M1184.755,401.126c-1.644,0-2.977-1.017-2.977-2.271s1.333-2.271,2.977-2.271h-12.987c1.644,0,2.976,1.017,2.976,2.271s-1.333,2.271-2.976,2.271Z" transform="translate(-1171.768 -396.584)"/></g></g><g transform="translate(0 100.532)"><g transform="translate(12.415 14.116)"><rect class="b" width="91.188" height="12.75" rx="6.375" transform="translate(91.188 12.75) rotate(180)"/></g><g transform="translate(6.044 31.267)"><path class="b" d="M86.948,720.432h32.3a5.1,5.1,0,0,1,5.085,5.085h0a5.1,5.1,0,0,1-5.085,5.085h-32.3a5.1,5.1,0,0,1-5.085-5.085h0A5.1,5.1,0,0,1,86.948,720.432Z" transform="translate(-81.863 -720.432)"/></g><path class="b" d="M60.487,583.543h32.3a5.1,5.1,0,0,1,5.085,5.085h0a5.1,5.1,0,0,1-5.085,5.085h-32.3a5.1,5.1,0,0,1-5.085-5.085h0A5.1,5.1,0,0,1,60.487,583.543Z" transform="translate(-55.402 -583.543)"/><g transform="translate(22.052 9.765)"><path class="b" d="M151.948,626.293c1.575,0,2.851.974,2.851,2.176s-1.277,2.176-2.851,2.176h12.441c-1.575,0-2.851-.974-2.851-2.176s1.277-2.176,2.851-2.176Z" transform="translate(-151.948 -626.293)"/></g><g transform="translate(18.022 26.725)"><path class="b" d="M134.3,700.548c1.644,0,2.976,1.017,2.976,2.271s-1.333,2.271-2.976,2.271h12.987c-1.644,0-2.976-1.017-2.976-2.271s1.333-2.271,2.976-2.271Z" transform="translate(-134.304 -700.548)"/></g></g></g><g transform="translate(123.642 150.584)"><g transform="translate(28.461 50.897)"><path class="b" d="M480.765,421.031l0,90.819a4.009,4.009,0,0,0,4.016,4l81.826,0a4.009,4.009,0,0,0,4.015-4V497.692l-.068-7.8,0-86.246a4.01,4.01,0,0,0-4.016-4l-64.39,0-21.384,21.367Z" transform="translate(-480.308 -399.186)"/><path class="c" d="M483.24,514.766a4.471,4.471,0,0,1-4.473-4.459l0-90.819v-.03a.457.457,0,0,1,.134-.312l21.384-21.367a.457.457,0,0,1,.323-.134l64.39,0a4.471,4.471,0,0,1,4.472,4.46l0,86.246.068,7.8V510.3a4.471,4.471,0,0,1-4.472,4.46Zm-3.562-95.107,0,90.648a3.556,3.556,0,0,0,3.559,3.546l81.826,0a3.557,3.557,0,0,0,3.559-3.546V496.149l-.068-7.8,0-86.25A3.557,3.557,0,0,0,565,398.557l-64.2,0Zm-.438-.171h0Z" transform="translate(-478.765 -397.643)"/><g transform="translate(0 0.002)"><path class="c" d="M479.222,419.995a.457.457,0,0,1-.323-.78l21.428-21.43a.457.457,0,0,1,.78.323v17.214a4.678,4.678,0,0,1-4.672,4.673Zm20.972-20.784-19.869,19.87h16.111a3.763,3.763,0,0,0,3.759-3.759Z" transform="translate(-478.765 -397.651)"/></g><g transform="translate(8.547 63.453)"><g class="d" transform="translate(16.405)"><path class="e" d="M626.4,676.814H588.692a.685.685,0,0,1,0-1.37H626.4a.685.685,0,0,1,0,1.37Z" transform="translate(-588.007 -675.444)"/></g><g transform="translate(0 25.207)"><path class="c" d="M587.617,786.716H516.643a.457.457,0,1,1,0-.914h70.974a.457.457,0,1,1,0,.914Z" transform="translate(-516.186 -785.802)"/></g><g transform="translate(0 15.216)"><path class="c" d="M587.617,742.973H516.643a.457.457,0,1,1,0-.914h70.974a.457.457,0,1,1,0,.914Z" transform="translate(-516.186 -742.059)"/></g><g transform="translate(0 35.199)"><path class="c" d="M552.4,830.459H516.643a.457.457,0,1,1,0-.914H552.4a.457.457,0,0,1,0,.914Z" transform="translate(-516.186 -829.545)"/></g></g><g transform="translate(30.933 37.781)"><path class="f" d="M614.649,569.273a.457.457,0,0,1-.325-.778,21.131,21.131,0,0,1,14.362-5.446,21.728,21.728,0,0,1,14.265,4.979.457.457,0,0,1-.626.666,21.216,21.216,0,0,0-13.639-4.731,20.542,20.542,0,0,0-13.712,5.174A.455.455,0,0,1,614.649,569.273Z" transform="translate(-614.192 -563.05)"/></g><g transform="translate(26.095 29.925)"><ellipse class="c" cx="2" cy="2" rx="2" ry="2"/></g><g transform="translate(62.008 29.925)"><ellipse class="c" cx="2" cy="2" rx="2" ry="2"/></g></g><g transform="translate(0 0)"><g transform="translate(0.018 0.018)"><rect class="b" width="68.52" height="36.316" rx="17.249" transform="matrix(0.993, -0.119, 0.119, 0.993, 0, 8.123)"/></g><g transform="translate(2.302 2.302)"><rect class="g" width="68.52" height="36.316" rx="5" transform="matrix(0.993, -0.119, 0.119, 0.993, 0, 7.123)"/></g><path class="h" d="M361.925,219.032a4.4,4.4,0,0,1-4.362-3.876l-3.371-28.236a4.4,4.4,0,0,1,3.844-4.887l60.213-7.189a4.4,4.4,0,0,1,4.887,3.844l3.371,28.235a4.4,4.4,0,0,1-3.844,4.887L362.45,219A4.427,4.427,0,0,1,361.925,219.032Zm56.848-43.3a3.506,3.506,0,0,0-.415.025l-60.213,7.189a3.483,3.483,0,0,0-3.046,3.871l3.371,28.236a3.487,3.487,0,0,0,3.871,3.046l60.213-7.189.054.454-.054-.454a3.483,3.483,0,0,0,3.046-3.871L422.229,178.8A3.488,3.488,0,0,0,418.773,175.728Z" transform="translate(-354.16 -174.814)"/><g transform="translate(8.749 6.873)"><path class="b" d="M403.793,245.7l-.343-2.87-7.747.925a3.207,3.207,0,0,1-2.278-.4,2.331,2.331,0,0,1-.948-1.718,1.765,1.765,0,0,1,.037-.607,3.087,3.087,0,0,1,.249-.672q.176-.357.371-.694t.481-.824l6.872-11.917a12.545,12.545,0,0,1,1.133-1.724,1.761,1.761,0,0,1,1.184-.635q2.346-.28,2.666,2.4l1.426,11.944.663-.079a4.719,4.719,0,0,1,1.945.1,1.4,1.4,0,0,1,.887,1.334,1.489,1.489,0,0,1-.431,1.374,3.108,3.108,0,0,1-1.71.619l-.941.112.343,2.87a2.582,2.582,0,0,1-.314,1.83,1.979,1.979,0,0,1-2.8.319A2.564,2.564,0,0,1,403.793,245.7Zm-7.391-5.535,6.635-.792-1.07-8.966Z" transform="translate(-392.465 -220.052)"/><path class="b" d="M492.59,227.617a26.679,26.679,0,0,1,.211,4.388,10.219,10.219,0,0,1-.748,3.439,7.636,7.636,0,0,1-2.381,3.133,7.429,7.429,0,0,1-7.949.6,8.131,8.131,0,0,1-3.239-3.338,13.74,13.74,0,0,1-1.04-2.748,23.73,23.73,0,0,1-.624-3.33,32.421,32.421,0,0,1-.254-4.227,13.936,13.936,0,0,1,.388-3.3,6.954,6.954,0,0,1,6.246-5.363,7.781,7.781,0,0,1,2.947.172,6.629,6.629,0,0,1,2.457,1.241,8.719,8.719,0,0,1,1.953,2.263A17.827,17.827,0,0,1,492.59,227.617Zm-4.265.2a25.877,25.877,0,0,0-.891-4.581,5.731,5.731,0,0,0-1.466-2.579,2.817,2.817,0,0,0-2.332-.653,2.875,2.875,0,0,0-2.587,2.391,18.827,18.827,0,0,0-.039,6.422,27.4,27.4,0,0,0,.907,4.713,6.013,6.013,0,0,0,1.476,2.664,3,3,0,0,0,4.394-.564,6.174,6.174,0,0,0,.789-2.958A28.991,28.991,0,0,0,488.325,227.814Z" transform="translate(-457.355 -214.09)"/><path class="b" d="M568.232,226.068l-.343-2.87-7.747.925a3.2,3.2,0,0,1-2.278-.4,2.329,2.329,0,0,1-.949-1.718,1.761,1.761,0,0,1,.037-.607,3.077,3.077,0,0,1,.248-.671q.176-.357.371-.694t.481-.824l6.872-11.917a12.571,12.571,0,0,1,1.132-1.724,1.761,1.761,0,0,1,1.184-.634q2.345-.28,2.666,2.4l1.426,11.944L572,219.2a4.725,4.725,0,0,1,1.944.1,1.4,1.4,0,0,1,.887,1.334,1.488,1.488,0,0,1-.431,1.374,3.109,3.109,0,0,1-1.711.619l-.941.113.343,2.87a2.581,2.581,0,0,1-.314,1.83,1.979,1.979,0,0,1-2.8.319A2.565,2.565,0,0,1,568.232,226.068Zm-7.391-5.535,6.636-.792-1.07-8.966Z" transform="translate(-519.345 -204.905)"/></g></g><g transform="translate(118.277 95.586)"><path class="c" d="M889.36,608.151a.438.438,0,0,1-.052,0c-7.856-.887-12.109-4.5-14.293-7.38a14.677,14.677,0,0,1-3.031-7.018.457.457,0,0,1,.457-.457h0a.457.457,0,0,1,.456.457,13.906,13.906,0,0,0,2.845,6.465c2.077,2.735,6.133,6.174,13.668,7.025a.457.457,0,0,1-.051.911Z" transform="translate(-871.984 -593.293)"/></g><g transform="translate(8.576 82.399)"><path class="c" d="M412.048,550.169h-.016a22.641,22.641,0,0,1-7.461-2.535,35.611,35.611,0,0,1-12.783-11.357.457.457,0,0,1,.748-.524c8.531,12.174,19.423,13.5,19.527,13.5a.457.457,0,0,1-.015.913Z" transform="translate(-391.706 -535.558)"/></g><g transform="translate(2.732 34.512)"><path class="h" d="M373.7,387.689a.457.457,0,0,1-.453-.4l-7.119-60.867a.457.457,0,1,1,.907-.106l7.119,60.867a.457.457,0,0,1-.4.507A.475.475,0,0,1,373.7,387.689Z" transform="translate(-366.122 -325.908)"/></g><g transform="translate(69.661 167.106)"><g transform="translate(0 0)"><path class="c" d="M659.595,916.9a.457.457,0,0,1-.457-.457v-9.576a.457.457,0,0,1,.914,0v9.576A.457.457,0,0,1,659.595,916.9Z" transform="translate(-659.138 -906.411)"/></g><g transform="translate(7.462 0)"><path class="c" d="M692.262,916.9a.457.457,0,0,1-.457-.457v-9.576a.457.457,0,0,1,.914,0v9.576A.457.457,0,0,1,692.262,916.9Z" transform="translate(-691.805 -906.411)"/></g></g></g></g><g transform="translate(-206.268 822.107) rotate(-30)"><path class="i" d="M443.266,155.225l3.569,8.164c.959,2.193,3.1,1.259,2.137-.935l-3.569-8.164C444.444,152.1,442.306,153.031,443.266,155.225Z" transform="matrix(0.899, -0.438, 0.438, 0.899, 84.825, -318.542)"/><path class="i" d="M377.539,242.214c-1.978-1.463-4.087-2.736-6.065-4.2-1.211-.9-2.372,1.13-1.177,2.014,1.978,1.463,4.088,2.735,6.065,4.2C377.572,245.124,378.733,243.1,377.539,242.214Z" transform="translate(105.687 -374.495) rotate(-31)"/><path class="i" d="M581.093,149.835a14.049,14.049,0,0,1-.466-8.244,1.167,1.167,0,0,0-2.249-.62,16.316,16.316,0,0,0,.467,9.484C579.308,151.88,581.56,151.27,581.093,149.835Z" transform="translate(-13.967 -524.328)"/><path class="i" d="M684.975,145.258a36.255,36.255,0,0,0-1.559,10.319c-.022,2.334,2.311,2.331,2.332,0a30.073,30.073,0,0,1,1.24-8.493C687.635,144.991,685.625,143.155,684.975,145.258Z" transform="translate(180.696 -952.789) rotate(43)"/></g></g></svg>